<svg version="1.2" xmlns="http://www.w3.org/2000/svg" viewBox="0 0 1920 1080" width="1920" height="1080">
	<title>iyzico_wtihebg_blue</title>
	<style>
		.s0 { fill: #1e64ff } 
	</style>
	<filter id="f0">
		<feFlood flood-color="#ffffff" flood-opacity="1" />
		<feBlend mode="normal" in2="SourceGraphic"/>
		<feComposite in2="SourceAlpha" operator="in" />
	</filter>
	<g id="Klasör 1" filter="url(#f0)">
		<path class="s0" d="m98.3 366.2c-25.2 0-45.6 20.4-45.6 45.6v267.1c0 25.2 20.4 45.6 45.6 45.6 25.2 0 45.7-20.4 45.7-45.6v-267.1c0-25.2-20.5-45.6-45.7-45.6z"/>
		<path class="s0" d="m98.3 220.8c-27.8 0-50.4 22.6-50.4 50.4 0 27.9 22.6 50.5 50.4 50.5 27.9 0 50.5-22.6 50.5-50.5 0-27.8-22.6-50.4-50.5-50.4z"/>
		<path class="s0" d="m915.6 678.9c0-25.2-20.4-45.7-45.7-45.7h-126.1l161.2-192.1c16.2-19.2 13.6-48.1-5.6-64.2-9-7.6-20-11.1-31-10.7-0.5-0.1-201.6 0-201.6 0-25.3 0-45.7 20.4-45.7 45.6 0 25.1 20.4 45.7 45.7 45.7h105.3l-161.1 192c-16.3 19.4-13.7 48.1 5.6 64.3 8.5 7.2 19 10.7 29.3 10.7h224.1c25.2 0 45.7-20.4 45.7-45.6z"/>
		<path class="s0" d="m1318.1 451.4c25 0.1 48.5 9.8 66.2 27.5 17.8 17.8 46.7 17.8 64.5 0 17.8-17.9 17.8-46.8 0-64.6-34.9-35-81.3-54.2-130.7-54.2-49.4 0-95.8 19.2-130.7 54.2-34.9 34.9-54.1 81.3-54.1 130.7 0 49.4 19.2 95.8 54.1 130.6 34.9 34.9 81.4 54.2 130.7 54.2 49.3 0 95.8-19.3 130.8-54.2 17.7-17.8 17.7-46.7-0.1-64.5-17.8-17.9-46.7-17.9-64.5 0-17.7 17.6-41.2 27.4-66.2 27.4-25 0-48.4-9.8-66.1-27.4-17.7-17.7-27.4-41.2-27.4-66.1 0-25 9.7-48.5 27.4-66.1 17.7-17.8 41.1-27.5 66.1-27.4z"/>
		<path class="s0" d="m1687.3 360.1c-101.9 0-184.8 82.9-184.8 184.9 0 101.9 82.9 184.8 184.8 184.8 101.8 0 184.8-82.9 184.8-184.8 0-102-82.9-184.9-184.8-184.9zm0 278.4c-51.6 0-93.5-42-93.5-93.5 0-51.6 41.9-93.5 93.5-93.5 51.5 0 93.5 41.9 93.5 93.5 0 51.5-42 93.5-93.5 93.5z"/>
		<path class="s0" d="m1027.8 366.2c-25.2 0-45.6 20.4-45.6 45.6v267.1c0 25.2 20.4 45.6 45.6 45.6 25.2 0 45.7-20.4 45.7-45.6v-267.1c0-25.2-20.4-45.6-45.7-45.6z"/>
		<path class="s0" d="m1027.8 220.8c-27.9 0-50.5 22.6-50.5 50.4 0 27.9 22.6 50.5 50.5 50.5 27.9 0 50.5-22.6 50.5-50.5 0-27.8-22.6-50.4-50.5-50.4z"/>
		<path class="s0" d="m541.7 371.3c-22.4-11.6-49.9-2.9-61.5 19.5l-98 188.8-97.9-188.8c-11.6-22.4-39.2-31.1-61.6-19.5-22.3 11.7-31.1 39.3-19.4 61.6l127.5 245.9-58.9 113.7c-11.7 22.4-3 50 19.4 61.6 7.4 3.9 15.3 5.5 23 5.1 15.8-0.7 30.8-9.5 38.7-24.5l208.1-401.8c11.7-22.3 3-49.9-19.4-61.6z"/>
	</g>
</svg>